Coordinates
version=1
nRows=19
nColumns=36
inDegrees=yes

Units are S.I. units (second, meters, Newtons, ...)
If the header above contains a line with 'inDegrees', this indicates whether rotational values are in degrees (yes) or radians (no).

endheader
time	pelvis_tilt	pelvis_list	pelvis_rotation	pelvis_tx	pelvis_ty	pelvis_tz	hip_flexion_r	hip_adduction_r	hip_rotation_r	knee_angle_r	knee_angle_r_beta	ankle_angle_r	subtalar_angle_r	mtp_angle_r	hip_flexion_l	hip_adduction_l	hip_rotation_l	knee_angle_l	knee_angle_l_beta	ankle_angle_l	subtalar_angle_l	mtp_angle_l	lumbar_extension	lumbar_bending	lumbar_rotation	arm_flex_r	arm_add_r	arm_rot_r	elbow_flex_r	pro_sup_r	arm_flex_l	arm_add_l	arm_rot_l	elbow_flex_l	pro_sup_l
      1.96666670	     -2.61573251	     -0.92425308	      2.66425581	     -0.95287263	      1.25755464	     -0.08036374	      7.69112162	      1.50861590	     -2.02931186	     10.64988502	      0.18587556	      6.17384572	    -19.16067175	     -7.49999987	     10.98515984	     -1.58055218	      7.58818641	     20.83429127	      0.36362698	     13.29783569	    -10.95595425	     -7.49999987	    -16.28138694	      0.41569959	      0.16939779	     12.36777788	     -9.49638168	     21.40800996	     39.02469936	     84.31585625	      9.72593680	    -11.75074628	     28.67253996	     32.82155566	     80.18567391
      1.97083330	     -2.63603284	     -0.94929915	      2.44406071	     -0.95648545	      1.26198172	     -0.08087574	      7.73569367	      1.62600371	     -1.91913031	     10.57580979	      0.18458270	      6.14059511	    -19.16518009	     -7.49999987	     11.16821654	     -1.65891418	      7.57864312	     20.86452308	      0.36415462	     13.41814930	    -11.02203133	     -7.49999987	    -16.30967111	      0.36952362	      0.31096478	     12.50598581	     -9.48322139	     21.48527109	     39.14772172	     84.38741211	      9.67987096	    -11.81210956	     28.69078856	     32.70825531	     80.22700864
      1.97500000	     -2.47352257	     -0.98773015	      2.38892065	     -0.94723335	      1.25833227	     -0.07884107	      7.38475371	      1.77063154	     -1.72448560	     10.37098210	      0.18100778	      5.80224403	    -19.56874480	     -7.49999987	     10.96804922	     -1.82266978	      7.60910388	     20.87978894	      0.36442106	     13.69795567	    -10.91723561	     -7.49999987	    -16.19010679	      0.31912325	      0.47933037	     12.13019272	     -9.66289286	     22.13778313	     39.71450336	     84.15795942	      9.43662767	    -11.77902692	     28.87040502	     32.20153428	     79.86501643
      1.97916670	     -2.47932121	     -1.04356532	      2.20179748	     -0.95187308	      1.25510390	     -0.07726551	      7.37840954	      1.96125315	     -1.43677988	     10.33685898	      0.18041222	      5.99686442	    -19.50869080	     -7.49999987	     10.99121117	     -1.99509370	      7.54181364	     20.78150124	      0.36270562	     14.10909766	    -11.12947373	     -7.49999987	    -15.97831770	      0.26965621	      0.59104834	     12.05453098	     -9.59578285	     22.17997483	     39.87004624	     84.22044861	      9.19586336	    -11.89882727	     28.87729149	     32.10552297	     79.89439345
      1.98333330	     -2.43185097	     -1.03953964	      2.08849163	     -0.94869601	      1.25934620	     -0.07939547	      7.28597347	      1.96148196	     -1.42042829	     10.36483984	      0.18090058	      5.97305865	    -19.49088397	     -7.49999987	     10.96454878	     -2.03979576	      7.68560666	     20.75459719	      0.36223606	     14.08461978	    -11.05114593	     -7.49999987	    -15.89336040	      0.19202738	      0.70311259	     12.02846360	     -9.57542046	     22.19621344	     39.93867727	     84.23915671	      8.93073417	    -11.88794573	     28.90110802	     32.02408809	     79.90215727
      1.98750000	     -2.41314345	     -0.94004368	      1.85058220	     -0.94919255	      1.25975958	     -0.07745000	      7.11580900	      1.94237650	     -0.96193498	     10.19073070	      0.17786180	      5.87299332	    -19.50430194	     -7.49999987	     10.59163937	     -2.03918617	      7.64255646	     20.01618635	      0.34934836	     14.06191605	    -11.07946654	     -7.49999987	    -15.63487456	      0.00558510	      0.89056660	     11.66001121	     -9.65784266	     22.32715737	     40.68722304	     83.78732356	      8.67513683	    -11.77973833	     28.74570167	     31.50056165	     79.27122599
      1.99166670	     -2.33397891	     -0.96416669	      1.79252100	     -0.94760463	      1.25701020	     -0.07753951	      6.89258540	      1.94059569	     -1.31221231	     10.06679454	      0.17569871	      6.37257090	    -18.44910375	     -7.49999987	     10.41105034	     -2.10620282	      7.69380860	     19.73644095	      0.34446588	     14.25158399	    -10.82861852	     -7.49999987	    -15.42593995	     -0.00601175	      0.94399158	     11.41448147	     -9.70751695	     22.42444523	     41.17466058	     83.01413492	      8.32694220	    -11.71977599	     28.75904396	     31.35031676	     78.55236358
      1.99583330	     -2.07996714	     -0.86080164	      1.57141726	     -0.94856184	      1.25627937	     -0.07793085	      6.66970756	      1.88907350	     -0.81626980	     10.21982685	      0.17836963	      6.06758120	    -19.13248456	     -7.49999987	      9.92323373	     -2.00776492	      7.88716805	     19.23872314	      0.33577906	     14.13587719	    -11.22628832	     -7.49999987	    -15.62353894	     -0.16403121	      1.09156171	     11.34907868	     -9.82087484	     22.53519019	     41.73540327	     82.33655882	      8.30385759	    -11.60563034	     28.88316886	     30.81815241	     77.74664053
      2.00000000	     -2.17234902	     -0.76459561	      1.33707450	     -0.95270162	      1.26006439	     -0.07992732	      6.88174721	      1.79054718	     -0.52648501	     10.34953838	      0.18063352	      6.13970878	    -19.11010743	     -7.49999987	      9.94859019	     -1.85085723	      8.12272405	     18.74229644	      0.32711478	     13.94723612	    -11.39287078	     -7.49999987	    -15.49343021	     -0.31109036	      1.14835113	     11.37476724	     -9.99676555	     22.64358043	     42.28323439	     82.67383120	      8.23233224	    -11.52101337	     29.08514194	     30.59006031	     77.91620280
      2.00416670	     -2.13396057	     -0.66897678	      1.23967957	     -0.95099597	      1.26154168	     -0.07993548	      6.84166455	      1.67921216	     -0.28043399	     10.26730689	      0.17919831	      6.33070270	    -18.65705200	     -7.49999987	      9.77430116	     -1.63416652	      8.73370489	     18.15057300	      0.31678726	     13.51578601	    -12.05124459	     -7.49999987	    -15.51386938	     -0.35314732	      1.40748727	     11.10284761	    -10.28547860	     22.44922899	     43.25719862	     83.74546517	      8.50282549	    -11.38653028	     30.10874433	     29.95682394	     78.16335573
      2.00833330	     -2.18829847	     -0.59801791	      1.06780702	     -0.94985045	      1.26933202	     -0.07907434	      6.87287168	      1.56819562	     -0.41544727	     10.24153276	      0.17874847	      5.90855177	    -18.58141896	     -7.49999987	      9.62598266	     -1.52674846	      8.89796967	     17.54809226	      0.30627199	     13.11794328	    -11.84167962	     -7.49999987	    -15.39196674	     -0.41128658	      1.41456273	     11.11582283	    -10.27389339	     22.37871752	     43.41550382	     83.82065705	      8.26894314	    -11.26751725	     30.10199065	     29.79440098	     78.17006579
      2.01250000	     -1.86621540	     -0.51619235	      0.85989072	     -0.94860300	      1.26775760	     -0.07897350	      6.39765946	      1.52033126	     -0.02263194	      9.94910498	      0.17364464	      5.61809306	    -18.47088638	     -7.49999987	      8.97486403	     -1.39052688	      9.17368572	     16.80047533	      0.29322361	     12.46862317	    -12.42546437	     -7.49999987	    -15.74248638	     -0.51067722	      1.49780601	     11.12312217	    -10.28814499	     22.18966168	     43.87804731	     82.93723395	      8.29133107	    -10.98383030	     29.92021694	     29.07650099	     77.19855469
      2.01666670	     -1.47369866	     -0.47257789	      0.64497133	     -0.94504103	      1.26534018	     -0.07973285	      5.81164556	      1.45104854	      0.12803409	      9.81325931	      0.17127369	      5.11614799	    -18.66265047	     -7.49999987	      8.12203371	     -1.32525612	      9.34318378	     15.98643443	      0.27901592	     11.87794814	    -12.64934495	     -7.49999987	    -16.13854843	     -0.54572687	      1.56842423	     10.93792589	    -10.54602498	     22.20467409	     45.08179654	     83.04580075	      8.19461050	    -10.85482305	     30.02165684	     28.81094633	     76.88357811
      2.02083330	     -1.31532774	     -0.46092052	      0.43428127	     -0.94504540	      1.26460606	     -0.07932759	      5.57845805	      1.38143346	     -0.11707961	      9.87436346	      0.17234015	      5.23146375	    -18.12185652	     -7.49999987	      7.54741160	     -1.22223097	      9.74175346	     15.25575086	      0.26626308	     11.18673801	    -13.28458445	     -7.49999987	    -16.18570846	     -0.57423141	      1.77043683	     10.57647720	    -10.63836815	     21.48190126	     45.98054023	     84.68886763	      8.14619254	    -10.71597594	     30.33516175	     28.40818034	     77.08273291
      2.02500000	     -1.15939944	     -0.49013481	      0.15775117	     -0.94518360	      1.26030643	     -0.07869877	      5.36383321	      1.43695731	      0.24838077	      9.89334058	      0.17267137	      4.79540823	    -18.83590034	     -7.49999987	      7.03777045	     -1.24937040	      9.66342393	     14.71048865	      0.25674646	     11.04379439	    -13.16835854	     -7.49999987	    -16.14694073	     -0.61666456	      1.74786982	     10.38123877	    -10.70291461	     21.21937384	     46.90071878	     84.93464906	      7.76876688	    -10.59459100	     29.35400255	     28.28182551	     77.02895847
      2.02916670	     -1.03716383	     -0.49915192	     -0.05261597	     -0.94389078	      1.26204536	     -0.07792020	      5.19255459	      1.42151570	      0.08276657	      9.96295383	      0.17388635	      5.20352950	    -18.20821064	     -7.49999987	      6.51105852	     -1.24655322	      9.79615360	     14.15682324	      0.24708318	     10.49096615	    -13.65076484	     -7.49999987	    -16.05994353	     -0.65394260	      1.98375748	      9.98751396	    -10.75196854	     20.30177486	     47.90924047	     87.87242811	      7.74475737	    -10.54299215	     30.02694555	     27.85974660	     77.27827059
      2.03333330	     -0.86990672	     -0.53165762	     -0.28320061	     -0.94373596	      1.26386637	     -0.07797218	      4.98598214	      1.44621493	     -0.00897316	      9.98661380	      0.17429929	      5.59883216	    -17.70353323	     -7.49999987	      5.97193436	     -1.30836221	      9.76296927	     13.68766302	      0.23889479	     10.29835885	    -13.65179074	     -7.49999987	    -15.99865857	     -0.68945455	      1.89877881	      9.99049128	    -10.77222681	     20.40700649	     48.53077852	     87.03165103	      7.45009578	    -10.46394849	     29.79738594	     27.50077215	     76.74155092
      2.03750000	     -0.75784990	     -0.53129790	     -0.50152887	     -0.94284652	      1.26605573	     -0.07733772	      4.80489534	      1.46725482	      0.08885274	      9.97068392	      0.17402126	      5.41653673	    -18.02019635	     -7.49999987	      5.45631622	     -1.33731055	      9.79456782	     13.18291113	      0.23008520	      9.89580838	    -13.82867022	     -7.49999987	    -15.89782929	     -0.78599002	      1.90799615	      9.78786630	    -10.83604598	     20.39058656	     49.54275754	     86.38008200	      7.16693555	    -10.40034072	     29.63398013	     27.20532624	     76.04746714
      2.04166670	     -0.83495704	     -0.52556193	     -0.68962663	     -0.94326727	      1.27112012	     -0.07686887	      4.85517197	      1.49424372	      0.16565169	      9.91409000	      0.17303351	      5.29475627	    -17.94700017	     -7.49999987	      5.15488448	     -1.34848458	      9.86334862	     12.63998408	      0.22060934	      9.55204522	    -13.80430715	     -7.49999987	    -15.60799396	     -0.88737297	      1.79106165	      9.81568247	    -10.76499357	     20.36168594	     50.05115552	     86.41344685	      6.83341766	    -10.41670830	     29.64354452	     27.01346716	     76.04268512
